HIERARCHY
ROOT Hips
{
 OFFSET 0.000000 0.000000 0.000000
 CHANNELS 6 Xposition Yposition Zposition Yrotation Xrotation Zrotation
 JOINT Chest
 {
  OFFSET 0.000000 9.585900 0.002600
  CHANNELS 3 Yrotation Xrotation Zrotation
  JOINT Chest2
  {
   OFFSET 0.000000 9.601200 -0.005300
   CHANNELS 3 Yrotation Xrotation Zrotation
   JOINT Chest3
   {
    OFFSET 0.000000 9.561800 0.000000
    CHANNELS 3 Yrotation Xrotation Zrotation
    JOINT Chest4
    {
     OFFSET 0.000000 9.552100 0.000000
     CHANNELS 3 Yrotation Xrotation Zrotation
     JOINT Neck
     {
      OFFSET 0.000000 14.453000 0.000000
      CHANNELS 3 Yrotation Xrotation Zrotation
      JOINT Head
      {
       OFFSET 0.000000 8.936500 -0.011300
       CHANNELS 3 Yrotation Xrotation Zrotation
       End Site
       {
        OFFSET 0.000000 17.073600 -0.006000
       }
      }
     }
     JOINT RightCollar
     {
      OFFSET -2.921100 9.558500 0.000000
      CHANNELS 3 Yrotation Xrotation Zrotation
      JOINT RightShoulder
      {
       OFFSET -13.519700 0.000000 0.000000
       CHANNELS 3 Yrotation Xrotation Zrotation
       JOINT RightElbow
       {
        OFFSET 0.000000 -29.696600 0.000000
        CHANNELS 3 Yrotation Xrotation Zrotation
        JOINT RightWrist
        {
         OFFSET 0.000000 -24.004700 0.000000
         CHANNELS 3 Yrotation Xrotation Zrotation
         End Site
         {
          OFFSET 0.000000 -17.728500 0.000000
         }
        }
       }
      }
     }
     JOINT LeftCollar
     {
      OFFSET 2.921100 9.558500 0.000000
      CHANNELS 3 Yrotation Xrotation Zrotation
      JOINT LeftShoulder
      {
       OFFSET 13.519700 0.000000 0.000000
       CHANNELS 3 Yrotation Xrotation Zrotation
       JOINT LeftElbow
       {
        OFFSET 0.000000 -29.696600 0.000000
        CHANNELS 3 Yrotation Xrotation Zrotation
        JOINT LeftWrist
        {
         OFFSET 0.000000 -24.004700 0.000000
         CHANNELS 3 Yrotation Xrotation Zrotation
         End Site
         {
          OFFSET 0.000000 -17.728500 0.000000
         }
        }
       }
      }
     }
    }
   }
  }
 }
 JOINT RightHip
 {
  OFFSET -7.771700 -0.012900 -0.001300
  CHANNELS 3 Yrotation Xrotation Zrotation
  JOINT RightKnee
  {
   OFFSET 0.000000 -40.869800 0.001200
   CHANNELS 3 Yrotation Xrotation Zrotation
   JOINT RightAnkle
   {
    OFFSET 0.000000 -39.717900 0.002100
    CHANNELS 3 Yrotation Xrotation Zrotation
    JOINT RightToe
    {
     OFFSET 0.000000 -4.965400 11.033500
     CHANNELS 3 Yrotation Xrotation Zrotation
     End Site
     {
      OFFSET 0.000000 -1.423100 5.872300
     }
    }
   }
  }
 }
 JOINT LeftHip
 {
  OFFSET 7.771700 -0.012900 -0.001300
  CHANNELS 3 Yrotation Xrotation Zrotation
  JOINT LeftKnee
  {
   OFFSET 0.000000 -40.869800 0.001200
   CHANNELS 3 Yrotation Xrotation Zrotation
   JOINT LeftAnkle
   {
    OFFSET 0.000000 -39.717900 0.002100
    CHANNELS 3 Yrotation Xrotation Zrotation
    JOINT LeftToe
    {
     OFFSET 0.000000 -4.965400 11.033500
     CHANNELS 3 Yrotation Xrotation Zrotation
     End Site
     {
      OFFSET 0.000000 -1.423100 5.872300
     }
    }
   }
  }
 }
}
MOTION
Frames: 6
Frame Time: 0.008333
0.000000 85.388000 0.000000 0.000000 -5.767877 0.000000 0.000000 11.653817 0.000000 0.000000 -5.885947 0.000000 0.000000 -0.000000 0.000000 0.000000 -0.000000 0.000000 0.000000 12.528835 0.000000 0.000000 0.711642 0.000000 0.000000 -0.000000 0.000000 0.000000 0.000000 -90.000000 0.000000 -2.309062 0.000000 0.000000 2.309062 0.000000 0.000000 -0.000000 0.000000 0.000000 -0.000000 90.000000 0.000000 -2.309062 0.000000 0.000000 2.309062 0.000000 0.000000 8.520406 0.000000 0.000000 1.905762 0.000000 -0.000000 -4.658285 0.000000 0.000000 -0.000000 0.000000 0.000000 8.520406 0.000000 0.000000 1.905762 0.000000 -0.000000 -4.658285 0.000000 0.000000 -0.000000 0.000000
-27.320874 52.863207 2.542166 -177.439131 -13.208339 -1.801595 -0.421902 16.044433 1.342919 -0.102406 1.662416 0.218658 -0.036648 2.592647 0.164413 -0.324769 14.269034 1.264009 -0.555637 18.485052 -3.724233 0.313008 -6.132677 -3.822702 0.240503 -9.057566 -7.246398 -4.225023 -22.784292 -2.961628 -127.969139 -51.171551 158.327042 -13.939030 -39.769001 -20.076507 -4.633328 -9.501219 7.039510 18.324079 -23.963281 -1.843436 120.571199 -41.136408 -155.579396 8.748743 -28.660776 12.142500 7.148960 -65.523291 5.921959 -178.158186 85.909559 -178.343361 -12.015364 -22.270637 12.992158 -0.008589 0.003988 -0.059196 0.726789 -63.887728 -1.179226 123.297598 78.087421 120.090500 -6.091726 -19.583338 -1.862801 0.127029 0.164065 0.062400
-27.328649 52.864372 2.541016 -177.440623 -13.214743 -1.784982 -0.401550 16.017893 1.298489 -0.074034 1.626456 0.178136 -0.025542 2.562811 0.152628 -0.275624 14.227991 1.211292 -0.596033 18.533931 -3.652325 0.200365 -6.119021 -3.745744 -0.038846 -8.856202 -6.775270 -4.045850 -22.648722 -3.067058 -127.926573 -51.495432 158.234335 -13.843807 -39.708298 -20.069104 -4.502587 -9.257745 6.814227 17.962285 -23.972098 -1.631835 120.549570 -41.375321 -155.504623 8.712597 -28.523209 12.127927 7.137598 -65.512610 5.946491 -177.872053 85.908069 -178.080707 -12.219970 -22.257773 13.055795 -0.002458 0.012854 -0.038382 0.817117 -63.880919 -1.281666 123.234297 78.077005 120.048091 -6.073978 -19.579007 -1.863512 0.111359 0.160642 0.059967
-27.334526 52.865603 2.535997 -177.462019 -13.240227 -1.779354 -0.320253 15.950545 1.230035 -0.040554 1.569209 0.131679 -0.051193 2.601424 0.198130 -0.227170 14.177467 1.157534 -0.641633 18.585372 -3.585428 0.136654 -6.064929 -3.663722 -0.313262 -8.654344 -6.300189 -3.890729 -22.487642 -3.167116 -127.865479 -51.820332 158.155156 -13.738145 -39.671818 -20.076532 -4.366328 -8.966372 6.575768 17.604584 -24.017538 -1.413226 120.565982 -41.615724 -155.460248 8.655543 -28.401638 12.100796 7.120062 -65.481472 5.978386 -177.910182 85.904490 -178.164178 -12.246892 -22.260373 13.090906 0.003242 0.009386 -0.026819 0.904439 -63.856618 -1.357438 123.203015 78.066516 120.036780 -6.024880 -19.553139 -1.851853 0.068674 0.127303 0.039022
-27.342523 52.865244 2.532008 -177.480521 -13.253202 -1.762779 -0.244253 15.868322 1.153040 -0.032630 1.550428 0.122876 -0.052756 2.599029 0.205431 -0.176734 14.120648 1.106094 -0.689579 18.626664 -3.525693 0.106071 -5.968814 -3.570344 -0.578769 -8.454219 -5.831795 -3.755101 -22.301259 -3.263166 -127.768848 -52.134205 158.066724 -13.640574 -39.644116 -20.096365 -4.232533 -8.631856 6.327251 17.279179 -24.084629 -1.194868 120.602698 -41.849304 -155.448879 8.578272 -28.313640 12.077417 7.119096 -65.466132 5.996917 -177.811210 85.897947 -178.102993 -12.354669 -22.252554 13.133293 0.005946 0.009049 -0.010747 1.018813 -63.844124 -1.463578 123.233031 78.054817 120.086270 -5.994976 -19.565569 -1.838478 0.045220 0.121031 0.027536
-27.351989 52.863063 2.529107 -177.490885 -13.251637 -1.738820 -0.191780 15.794746 1.087314 -0.026360 1.534784 0.116624 -0.042388 2.573817 0.195230 -0.126173 14.061424 1.061153 -0.734265 18.648565 -3.475581 0.028020 -5.967623 -3.514847 -0.825486 -8.248731 -5.389523 -3.639349 -22.104513 -3.349086 -127.613965 -52.431876 157.945712 -13.572652 -39.609054 -20.112982 -4.106957 -8.271393 6.060330 17.010731 -24.143341 -0.973698 120.626927 -42.063619 -155.464084 8.486876 -28.258968 12.057825 7.111763 -65.474078 6.076990 -176.768182 85.889364 -177.068272 -12.819944 -22.203202 13.233536 -0.002601 0.025378 0.018025 1.146778 -63.843542 -1.596107 123.181538 78.040937 120.063317 -5.985495 -19.574530 -1.834136 0.026118 0.118561 0.019051
